<svg width="51" height="51" viewBox="0 0 51 51" fill="none" xmlns="http://www.w3.org/2000/svg">
<circle cx="25.074" cy="25.074" r="24.8107" fill="url(#paint0_linear_2001_252)" stroke="url(#paint1_linear_2001_252)" stroke-width="0.526653"/>
<g clip-path="url(#clip0_2001_252)">
<path d="M32.0643 18.0474L29.4748 20.5758C29.3934 20.6551 29.2871 20.7055 29.1729 20.7189C29.0587 20.7322 28.9432 20.7077 28.845 20.6493C27.8264 20.0493 26.6517 19.7501 25.4626 19.7877C24.2736 19.8254 23.1212 20.1983 22.1446 20.8615C21.5439 21.2698 21.0223 21.7791 20.6042 22.3656C19.9258 23.3198 19.5442 24.445 19.5054 25.6061C19.4665 26.7671 19.772 27.9143 20.3852 28.9097C20.4445 29.0055 20.4694 29.1179 20.4557 29.2291C20.4421 29.3402 20.3907 29.4437 20.3099 29.523L17.7204 32.0514C17.6683 32.1027 17.6054 32.1423 17.5361 32.1676C17.4668 32.193 17.3927 32.2033 17.3189 32.1982C17.2451 32.1929 17.1734 32.1722 17.1086 32.1373C17.0437 32.1025 16.9874 32.0544 16.9434 31.9963C15.5423 30.1159 14.8183 27.8355 14.8842 25.511C14.9502 23.1865 15.8024 20.9487 17.3079 19.147C17.7676 18.5957 18.2837 18.0917 18.8483 17.6429C20.6934 16.1733 22.9849 15.3414 25.3651 15.277C27.7453 15.2126 30.0804 15.9194 32.006 17.287C32.066 17.3298 32.1156 17.3848 32.1516 17.4482C32.1876 17.5116 32.2091 17.5818 32.2147 17.6541C32.2202 17.7263 32.2096 17.7989 32.1837 17.8668C32.1577 17.9347 32.117 17.9963 32.0643 18.0474Z" fill="url(#paint2_linear_2001_252)"/>
<path d="M32.0621 33.5557L29.4726 31.0272C29.3912 30.9479 29.2849 30.8975 29.1707 30.8842C29.0565 30.8708 28.941 30.8953 28.8428 30.9537C27.8823 31.5194 26.7819 31.8184 25.6603 31.8184C24.5386 31.8184 23.4382 31.5194 22.4778 30.9537C22.3796 30.8953 22.2641 30.8708 22.1499 30.8842C22.0357 30.8975 21.9294 30.9479 21.848 31.0272L19.2585 33.5557C19.2042 33.6066 19.1621 33.6687 19.1351 33.7373C19.1081 33.806 19.0969 33.8796 19.1022 33.953C19.1076 34.0264 19.1295 34.0976 19.1663 34.1618C19.203 34.226 19.2538 34.2815 19.315 34.3244C21.1582 35.6339 23.3791 36.3392 25.6586 36.3392C27.9381 36.3392 30.1589 35.6339 32.0022 34.3244C32.0636 34.2818 32.1146 34.2265 32.1518 34.1624C32.1888 34.0983 32.211 34.0271 32.2168 33.9538C32.2224 33.8804 32.2116 33.8067 32.1849 33.7379C32.1581 33.6691 32.1162 33.6069 32.0621 33.5557Z" fill="white"/>
<path d="M25.665 28.8099C27.3664 28.8099 28.7457 27.4632 28.7457 25.8018C28.7457 24.1406 27.3664 22.7938 25.665 22.7938C23.9636 22.7938 22.5843 24.1406 22.5843 25.8018C22.5843 27.4632 23.9636 28.8099 25.665 28.8099Z" fill="white"/>
</g>
<defs>
<linearGradient id="paint0_linear_2001_252" x1="10.6521" y1="0.526612" x2="48.0181" y2="9.42652" gradientUnits="userSpaceOnUse">
<stop stop-color="#04071D"/>
<stop offset="1" stop-color="#0C0E23"/>
</linearGradient>
<linearGradient id="paint1_linear_2001_252" x1="25.074" y1="0.526611" x2="25.074" y2="49.6214" gradientUnits="userSpaceOnUse">
<stop stop-color="#66699C" stop-opacity="0.43"/>
<stop offset="1" stop-color="#363749" stop-opacity="0.49"/>
</linearGradient>
<linearGradient id="paint2_linear_2001_252" x1="29.6306" y1="13.7291" x2="8.313" y2="35.563" gradientUnits="userSpaceOnUse">
<stop stop-color="#17CCFC"/>
<stop offset="0.5" stop-color="#5D31FF"/>
<stop offset="1" stop-color="#F35AFF"/>
</linearGradient>
<clipPath id="clip0_2001_252">
<rect width="20.0128" height="21.0661" fill="white" transform="translate(14.8801 15.2729)"/>
</clipPath>
</defs>
</svg>
