<svg width="51" height="51" viewBox="0 0 51 51" fill="none" xmlns="http://www.w3.org/2000/svg">
<circle cx="25.074" cy="25.0741" r="24.8107" fill="url(#paint0_linear_2001_270)" stroke="url(#paint1_linear_2001_270)" stroke-width="0.526653"/>
<g clip-path="url(#clip0_2001_270)">
<path d="M24.7407 13.5333C24.689 13.5379 24.5248 13.5544 24.377 13.5661C20.9682 13.8734 17.7753 15.7124 15.753 18.539C14.6269 20.1106 13.9066 21.8933 13.6345 23.7816C13.5383 24.4407 13.5266 24.6354 13.5266 25.5291C13.5266 26.4229 13.5383 26.6175 13.6345 27.2767C14.2867 31.7828 17.4937 35.5687 21.8433 36.9715C22.6222 37.2224 23.4433 37.3937 24.377 37.4969C24.7407 37.5368 26.3125 37.5368 26.6761 37.4969C28.2879 37.3186 29.6533 36.9198 30.9999 36.2326C31.2063 36.127 31.2462 36.0989 31.2181 36.0754C31.1993 36.0613 30.3195 34.8814 29.2638 33.4553L27.3448 30.8633L24.9401 27.3048C23.6169 25.3485 22.5283 23.7488 22.519 23.7488C22.5096 23.7464 22.5002 25.3274 22.4955 27.2579C22.4885 30.6381 22.4861 30.7741 22.4439 30.8539C22.3829 30.9688 22.336 31.0157 22.2374 31.0673C22.1624 31.1049 22.0967 31.1119 21.7424 31.1119H21.3366L21.2286 31.0439C21.1583 30.9993 21.1066 30.9407 21.0714 30.8726L21.0222 30.7671L21.0269 26.064L21.0339 21.3585L21.1066 21.267C21.1442 21.2178 21.2239 21.1544 21.2802 21.1239C21.3764 21.077 21.414 21.0723 21.8198 21.0723C22.2984 21.0723 22.3782 21.0911 22.5025 21.2271C22.5377 21.2647 23.8398 23.2257 25.3975 25.5878C26.9553 27.9499 29.0855 31.1752 30.1319 32.7586L32.0322 35.6367L32.1283 35.5734C32.98 35.0198 33.8808 34.2317 34.594 33.4107C36.1119 31.6678 37.0902 29.5426 37.4187 27.2767C37.5149 26.6175 37.5266 26.4229 37.5266 25.5291C37.5266 24.6354 37.5149 24.4407 37.4187 23.7816C36.7665 19.2755 33.5594 15.4896 29.2099 14.0868C28.4427 13.8382 27.6263 13.667 26.7113 13.5637C26.4861 13.5403 24.9354 13.5145 24.7407 13.5333ZM29.6533 20.7908C29.7659 20.8471 29.8574 20.955 29.8902 21.0676C29.909 21.1286 29.9137 22.4328 29.909 25.372L29.9019 29.5895L29.1583 28.4495L28.4122 27.3095V24.2437C28.4122 22.2616 28.4216 21.1474 28.4357 21.0934C28.4732 20.9621 28.5553 20.8589 28.6679 20.7979C28.7641 20.7486 28.7993 20.7439 29.1676 20.7439C29.5148 20.7439 29.5758 20.7486 29.6533 20.7908Z" fill="white"/>
</g>
<defs>
<linearGradient id="paint0_linear_2001_270" x1="10.6521" y1="0.526673" x2="48.0181" y2="9.42658" gradientUnits="userSpaceOnUse">
<stop stop-color="#04071D"/>
<stop offset="1" stop-color="#0C0E23"/>
</linearGradient>
<linearGradient id="paint1_linear_2001_270" x1="25.074" y1="0.526672" x2="25.074" y2="49.6214" gradientUnits="userSpaceOnUse">
<stop stop-color="#66699C" stop-opacity="0.43"/>
<stop offset="1" stop-color="#363749" stop-opacity="0.49"/>
</linearGradient>
<clipPath id="clip0_2001_270">
<rect width="24" height="24" fill="white" transform="translate(13.5266 13.5268)"/>
</clipPath>
</defs>
</svg>
