<svg width="51" height="51" viewBox="0 0 51 51" fill="none" xmlns="http://www.w3.org/2000/svg">
<circle cx="25.0741" cy="25.074" r="24.8107" fill="url(#paint0_linear_2001_111)" stroke="url(#paint1_linear_2001_111)" stroke-width="0.526653"/>
<path fill-rule="evenodd" clip-rule="evenodd" d="M25.0432 17.7782C21.6206 17.7782 19.482 19.5002 18.626 22.9443C19.9095 21.2222 21.4068 20.5766 23.1179 21.0069C24.0941 21.2523 24.7922 21.9651 25.5642 22.7543C26.8226 24.0395 28.2792 25.5268 31.4598 25.5268C34.8819 25.5268 37.021 23.8048 37.8765 20.3612C36.5935 22.0832 35.0962 22.7289 33.3851 22.2981C32.4084 22.0527 31.7103 21.3399 30.9383 20.5511C29.6799 19.265 28.2238 17.7782 25.0432 17.7782ZM18.626 25.5268C15.2039 25.5268 13.0649 27.2488 12.2094 30.6928C13.4929 28.9708 14.9902 28.3252 16.7007 28.7554C17.6774 29.0008 18.3755 29.7137 19.1476 30.5029C20.406 31.788 21.862 33.2753 25.0432 33.2753C28.4653 33.2753 30.6043 31.5538 31.4598 28.1098C30.1763 29.8318 28.679 30.4774 26.968 30.0472C25.9917 29.8013 25.2936 29.0884 24.5216 28.2997C23.2632 27.0146 21.8067 25.5268 18.626 25.5268Z" fill="#38BDF8"/>
<defs>
<linearGradient id="paint0_linear_2001_111" x1="10.6521" y1="0.526612" x2="48.0181" y2="9.42652" gradientUnits="userSpaceOnUse">
<stop stop-color="#04071D"/>
<stop offset="1" stop-color="#0C0E23"/>
</linearGradient>
<linearGradient id="paint1_linear_2001_111" x1="25.0741" y1="0.526611" x2="25.0741" y2="49.6214" gradientUnits="userSpaceOnUse">
<stop stop-color="#66699C" stop-opacity="0.43"/>
<stop offset="1" stop-color="#363749" stop-opacity="0.49"/>
</linearGradient>
</defs>
</svg>
