<svg width="51" height="51" viewBox="0 0 51 51" fill="none" xmlns="http://www.w3.org/2000/svg">
<circle cx="25.0741" cy="25.074" r="24.8107" fill="url(#paint0_linear_2001_115)" stroke="url(#paint1_linear_2001_115)" stroke-width="0.526653"/>
<g clip-path="url(#clip0_2001_115)">
<path d="M33.9268 13.5267H17.1268C15.1386 13.5267 13.5268 15.1385 13.5268 17.1267V33.9267C13.5268 35.915 15.1386 37.5267 17.1268 37.5267H33.9268C35.915 37.5267 37.5268 35.915 37.5268 33.9267V17.1267C37.5268 15.1385 35.915 13.5267 33.9268 13.5267Z" fill="#3178C6"/>
<path d="M24.4488 26.8394H27.4488V24.9175H19.0582V26.8394H22.0582V35.4175H24.4488V26.8394ZM28.3863 34.9487C28.766 35.1456 29.23 35.2909 29.7457 35.3894C30.2613 35.4878 30.8238 35.5347 31.3863 35.5347C31.9488 35.5347 32.4644 35.4831 32.98 35.3753C33.4957 35.2675 33.9175 35.0894 34.2925 34.8597C34.6722 34.6112 34.9957 34.2972 35.1832 33.8753C35.3707 33.4534 35.516 32.9847 35.516 32.3753C35.516 31.9487 35.4504 31.5784 35.3238 31.2503C35.1972 30.9222 35.0144 30.6409 34.7613 30.4065C34.5222 30.1581 34.2457 29.9378 33.9175 29.7503C33.5894 29.5628 33.2144 29.3659 32.7925 29.1878C32.4832 29.0612 32.23 28.9394 31.9488 28.8175C31.705 28.6956 31.4941 28.5737 31.3394 28.4519C31.166 28.3253 31.0347 28.194 30.941 28.0581C30.8472 27.9175 30.8004 27.7628 30.8004 27.5894C30.8004 27.43 30.8421 27.2847 30.9269 27.1534C31.0118 27.0222 31.1285 26.9144 31.2785 26.8206C31.4285 26.7269 31.616 26.6565 31.841 26.605C32.0613 26.5534 32.305 26.53 32.591 26.53C32.7879 26.53 32.9941 26.5445 33.2004 26.574C33.416 26.6036 33.6363 26.649 33.8566 26.71C34.0769 26.7709 34.2925 26.8459 34.5129 26.9397C34.7191 27.0334 34.9113 27.1412 35.0754 27.2631V25.06C34.7191 24.924 34.3254 24.8209 33.9035 24.7553C33.4816 24.6897 33.0129 24.6569 32.4504 24.6569C31.8879 24.6569 31.3722 24.7178 30.8566 24.835C30.341 24.9522 29.9191 25.1397 29.5441 25.3975C29.1644 25.6506 28.8879 25.96 28.6535 26.3819C28.4332 26.7756 28.3254 27.2256 28.3254 27.7881C28.3254 28.4912 28.5269 29.1006 28.9347 29.5694C29.3379 30.085 29.966 30.46 30.7629 30.835C31.0863 30.9662 31.3722 31.0975 31.6535 31.224C31.9347 31.3506 32.1691 31.4819 32.3566 31.6178C32.5582 31.7537 32.7175 31.9037 32.8254 32.0631C32.9425 32.2225 33.0035 32.41 33.0035 32.6256C33.0035 32.7756 32.9669 32.9162 32.8957 33.0475C32.8244 33.1787 32.7129 33.2912 32.5629 33.385C32.4129 33.4787 32.23 33.5537 32.0004 33.61C31.78 33.6615 31.5316 33.6897 31.2035 33.6897C30.6879 33.6897 30.1722 33.6006 29.7035 33.4225C29.1879 33.2444 28.7191 32.9772 28.3863 32.6987V34.9487Z" fill="white"/>
</g>
<defs>
<linearGradient id="paint0_linear_2001_115" x1="10.6521" y1="0.526612" x2="48.0181" y2="9.42652" gradientUnits="userSpaceOnUse">
<stop stop-color="#04071D"/>
<stop offset="1" stop-color="#0C0E23"/>
</linearGradient>
<linearGradient id="paint1_linear_2001_115" x1="25.0741" y1="0.526611" x2="25.0741" y2="49.6214" gradientUnits="userSpaceOnUse">
<stop stop-color="#66699C" stop-opacity="0.43"/>
<stop offset="1" stop-color="#363749" stop-opacity="0.49"/>
</linearGradient>
<clipPath id="clip0_2001_115">
<rect width="24" height="24" fill="white" transform="translate(13.5268 13.5267)"/>
</clipPath>
</defs>
</svg>
