<svg width="191" height="35" viewBox="0 0 191 35" fill="none" xmlns="http://www.w3.org/2000/svg">
<path d="M55.6197 28.1817C58.7356 28.1817 60.308 26.5728 60.9932 25.477H61.3019C61.4375 26.6407 62.2597 27.7365 63.8681 27.7365H66.9133V24.3119H66.1271C65.579 24.3119 65.3049 24.004 65.3049 23.5255V9.79531H61.2658V11.9868H60.9585C60.1724 10.8911 58.5293 9.35007 55.5173 9.35007C50.7267 9.35007 47.1665 13.3211 47.1665 18.7652C47.1665 24.2093 50.7945 28.1817 55.6197 28.1817ZM56.3381 24.2786C53.4978 24.2786 51.2748 22.1898 51.2748 18.7999C51.2748 15.4779 53.43 13.2199 56.3049 13.2199C59.0429 13.2199 61.335 15.2394 61.335 18.7999C61.335 21.8472 59.3833 24.2786 56.3381 24.2786ZM69.2992 34.6941H73.3369V25.477H73.6441C74.3971 26.5728 76.0056 28.1817 79.1892 28.1817C83.9799 28.1817 87.4708 24.1413 87.4708 18.7652C87.4708 13.3558 83.7404 9.35007 78.9152 9.35007C75.8354 9.35007 74.3279 11.027 73.6095 11.9521H73.3023V9.79531H69.2978L69.2992 34.6941ZM78.3338 24.3813C75.5613 24.3813 73.2676 22.3271 73.2676 18.7652C73.2676 15.7179 75.2194 13.1505 78.2646 13.1505C81.1064 13.1505 83.3293 15.3767 83.3293 18.7652C83.3293 22.0871 81.1742 24.3813 78.3338 24.3813ZM89.5553 34.6941H93.5943V25.477H93.9016C94.6546 26.5728 96.263 28.1817 99.4452 28.1817C104.236 28.1817 107.394 24.1413 107.394 18.7652C107.394 13.3558 103.996 9.35007 99.1712 9.35007C96.0914 9.35007 94.5854 11.027 93.867 11.9521H93.5583V9.79531H89.5553V34.6941ZM98.5898 24.3813C95.8173 24.3813 93.5251 22.3271 93.5251 18.7652C93.5251 15.7179 95.4754 13.1505 98.5206 13.1505C101.362 13.1505 103.587 15.3767 103.587 18.7652C103.587 22.0871 101.43 24.3813 98.5898 24.3813ZM112.734 28.1528H118.448L121.699 14.08H121.905L125.155 28.1528H130.838L135.386 10.2116H131.316L128.065 24.3191H127.756L124.506 10.2102H119.133L115.847 24.3191H115.54L112.323 10.2102H108.01L112.734 28.1528ZM137.433 28.1528H141.472V19.2856C141.472 15.8957 143.044 13.8068 145.988 13.8068H147.767V9.7664H146.433C144.139 9.7664 142.394 11.3421 141.71 12.8484H141.436V10.2116H137.433V28.1528ZM167.808 28.1528H170.957V24.5576H167.843C166.611 24.5576 166.097 24.0098 166.097 22.7434V13.7721H171.162V10.2116H166.097V5.17811H162.265V10.2116H158.911V13.7721H162.025V22.7781C162.025 26.5786 164.317 28.1528 167.808 28.1528ZM181.791 28.1817C185.521 28.1817 188.807 26.3314 189.97 22.6018L186.274 21.7098C185.623 23.6961 183.742 24.7239 181.757 24.7239C178.813 24.7239 176.863 22.8056 176.828 19.793H190.416V18.6625C190.416 13.3211 187.096 9.35007 181.62 9.35007C176.794 9.35007 172.654 13.1505 172.654 18.7999C172.654 24.2786 176.315 28.1817 181.791 28.1817ZM176.863 16.8483C177.102 14.6915 179.053 12.8759 181.62 12.8759C184.084 12.8759 186.104 14.4169 186.309 16.8483H176.863Z" fill="#EDEDF0"/>
<path fill-rule="evenodd" clip-rule="evenodd" d="M157.114 28.1526H153.075V13.772H149.928V10.2115H157.114V28.1526Z" fill="#EDEDF0"/>
<path d="M154.796 7.72055C156.268 7.72055 157.363 6.6248 157.363 5.18644C157.363 3.78422 156.268 2.68702 154.796 2.68702C153.324 2.68702 152.229 3.78278 152.229 5.18789C152.229 6.6248 153.324 7.72055 154.796 7.72055Z" fill="#EDEDF0"/>
<path d="M35.2598 23.7539V31.6728H15.5101C9.75583 31.6728 4.7315 28.4882 2.04407 23.7539C0.8549 21.6555 0.156022 19.3142 0 16.9061L0 14.7667C0.0701651 13.6677 0.25436 12.5791 0.549604 11.5184C2.39604 4.86873 8.39553 0 15.5086 0C22.6261 0 28.6241 4.87163 30.4691 11.517H22.0245C20.6397 9.35005 18.2394 7.91748 15.5101 7.91748C12.7808 7.91748 10.3819 9.35005 8.99562 11.517C8.56715 12.1842 8.24134 12.9123 8.02912 13.6767C7.83463 14.38 7.7366 15.1066 7.73773 15.8364C7.73454 16.9114 7.94893 17.976 8.36795 18.9656C8.78698 19.9552 9.40192 20.8495 10.1756 21.5942C11.607 22.9801 13.5197 23.7544 15.5101 23.7539H35.2598Z" fill="#FD366E"/>
<path d="M35.2597 13.6752V21.5941H20.8431C21.617 20.8495 22.2322 19.9554 22.6515 18.9657C23.0708 17.9761 23.2854 16.9115 23.2824 15.8363C23.2831 15.1064 23.1846 14.3799 22.9896 13.6766L35.2597 13.6752Z" fill="#FD366E"/>
</svg>
