<svg width="174" height="40" viewBox="0 0 174 40" fill="none" xmlns="http://www.w3.org/2000/svg">
<path d="M53.268 16.7909C52.1645 16.0381 49.2658 15.7166 47.1586 16.2924C47.0455 14.1648 45.9622 12.3716 43.9822 10.8069L43.2495 10.3084L42.761 11.0565C41.8008 12.5337 41.3959 14.5026 41.5391 16.2924C41.6522 17.3952 42.0303 18.6344 42.761 19.5337C40.0182 21.1465 37.4894 20.7803 26.2919 20.7803H9.00383C8.95364 23.3433 9.35981 28.2728 12.4526 32.2859C12.7945 32.7294 13.1686 33.1581 13.5754 33.5711C16.0901 36.1233 19.8895 37.9952 25.5706 38C34.2381 38.0081 41.6636 33.2591 46.181 21.778C47.6672 21.8024 51.5911 22.0479 53.5115 18.2871C53.5584 18.224 54 17.2901 54 17.2901L53.268 16.7916V16.7909ZM20.2863 14.4476H15.425V19.375H20.2863V14.4476ZM26.5663 14.4476H21.7049V19.375H26.5663V14.4476ZM32.8469 14.4476H27.9855V19.375H32.8469V14.4476ZM39.1275 14.4476H34.2662V19.375H39.1275V14.4476ZM14.0057 14.4476H9.14435V19.375H14.0057V14.4476ZM20.2863 8.22415H15.425V13.1515H20.2863V8.22415ZM26.5663 8.22415H21.7049V13.1515H26.5663V8.22415ZM32.8469 8.22415H27.9855V13.1515H32.8469V8.22415ZM32.8469 2H27.9855V6.92737H32.8469V2Z" fill="#1D63ED"/>
<path d="M165.154 30.4384C165.154 31.7229 164.157 32.7315 162.859 32.7315C161.561 32.7315 160.549 31.7229 160.549 30.4384C160.549 29.1538 161.574 28.173 162.859 28.173C164.144 28.173 165.154 29.1816 165.154 30.4384ZM161.124 30.4384C161.124 31.4469 161.862 32.2479 162.873 32.2479C163.884 32.2479 164.581 31.4469 164.581 30.4526C164.581 29.4583 163.857 28.6288 162.86 28.6288C161.864 28.6288 161.125 29.4441 161.125 30.4384H161.124ZM162.505 31.6266H161.985V29.3613C162.189 29.3199 162.477 29.2921 162.846 29.2921C163.27 29.2921 163.46 29.3613 163.625 29.4583C163.748 29.5546 163.843 29.7343 163.843 29.9554C163.843 30.2044 163.652 30.3977 163.38 30.4804V30.5082C163.597 30.5903 163.72 30.7564 163.789 31.0603C163.857 31.4055 163.898 31.5439 163.953 31.6266H163.393C163.325 31.5439 163.283 31.337 163.215 31.0739C163.174 30.8256 163.037 30.7151 162.75 30.7151H162.505V31.6273V31.6266ZM162.517 30.342H162.763C163.05 30.342 163.282 30.2457 163.282 30.0111C163.282 29.8035 163.133 29.6645 162.804 29.6645C162.668 29.6645 162.572 29.6787 162.517 29.6937V30.342Z" fill="white"/>
<path d="M77.1049 7.51243C76.7835 7.19501 76.3977 7.03359 75.9354 7.03359C75.4731 7.03359 75.0759 7.19501 74.7666 7.51243C74.4566 7.82984 74.305 8.23678 74.305 8.72172V16.8198C72.7148 15.4912 70.8797 14.8211 68.7923 14.8211C66.3661 14.8211 64.2915 15.7069 62.5725 17.4845C60.8535 19.2561 60 21.3993 60 23.9128C60 26.4263 60.8595 28.5635 62.5725 30.3411C64.2915 32.1127 66.3608 33.0045 68.7923 33.0045C71.2239 33.0045 73.2704 32.1188 75.0122 30.3411C76.7312 28.5872 77.5847 26.4447 77.5847 23.9128V8.72172C77.5847 8.23678 77.427 7.82984 77.1049 7.51243ZM73.8722 26.1035V26.1157C73.5857 26.8041 73.1939 27.4084 72.6974 27.9232C72.2008 28.4441 71.6158 28.851 70.9495 29.1562C70.2772 29.4614 69.5639 29.6113 68.7984 29.6113C68.0328 29.6113 67.3021 29.4614 66.6298 29.1562C65.9575 28.851 65.3785 28.4441 64.888 27.9293C64.3968 27.4145 64.0057 26.8102 63.7192 26.1218C63.4327 25.4273 63.2864 24.6914 63.2864 23.9128C63.2864 23.1342 63.4327 22.3983 63.7192 21.7038C64.0057 21.0093 64.3975 20.4111 64.888 19.8963C65.3791 19.3815 65.9635 18.9746 66.6298 18.6694C67.3021 18.3642 68.0214 18.2143 68.7984 18.2143C69.5753 18.2143 70.2772 18.3642 70.9495 18.6694C71.6218 18.9746 72.2008 19.3815 72.6974 19.9024C73.1939 20.4233 73.5857 21.0276 73.8722 21.7099C74.1587 22.3983 74.305 23.1288 74.305 23.9067C74.305 24.6846 74.1587 25.4212 73.8722 26.1035Z" fill="white"/>
<path d="M149.744 20.4237C149.318 19.3459 148.667 18.3706 147.815 17.4964L147.803 17.4903C146.067 15.7187 143.991 14.8269 141.583 14.8269C139.176 14.8269 137.082 15.7126 135.363 17.4903C133.644 19.2618 132.791 21.4051 132.791 23.9186C132.791 26.4321 133.651 28.5692 135.363 30.3469C137.082 32.1184 139.152 33.0103 141.583 33.0103C143.792 33.0103 145.704 32.2744 147.33 30.802C147.644 30.4669 147.803 30.06 147.803 29.5866C147.803 29.1132 147.652 28.6947 147.341 28.3773C147.032 28.0599 146.64 27.8985 146.172 27.8985C145.763 27.9107 145.4 28.0484 145.091 28.3237C144.6 28.7544 144.068 29.084 143.49 29.2997C142.911 29.5154 142.279 29.6232 141.59 29.6232C140.981 29.6232 140.397 29.5276 139.842 29.3302C139.286 29.1329 138.767 28.8629 138.304 28.5102C137.836 28.1569 137.433 27.7384 137.089 27.2413C136.744 26.7502 136.481 26.2056 136.306 25.6074H148.74C149.201 25.6074 149.587 25.446 149.909 25.1286C150.231 24.8111 150.388 24.4042 150.388 23.9193C150.388 22.6625 150.171 21.4953 149.746 20.4237H149.744ZM136.293 22.2311C136.463 21.6384 136.72 21.0937 137.064 20.5973C137.41 20.1062 137.819 19.6817 138.286 19.3283C138.76 18.9749 139.274 18.7057 139.841 18.5083C140.407 18.3109 140.986 18.2153 141.583 18.2153C142.181 18.2153 142.758 18.3109 143.318 18.5083C143.88 18.7057 144.395 18.9749 144.856 19.3283C145.325 19.6817 145.733 20.1001 146.078 20.5973C146.428 21.0883 146.693 21.6329 146.874 22.2311H136.292H136.293Z" fill="white"/>
<path d="M165.025 15.9639C164.732 15.6709 164.364 15.443 163.92 15.2755C163.476 15.1079 162.99 14.994 162.458 14.9282C161.932 14.8624 161.435 14.8326 160.974 14.8326C159.927 14.8326 158.945 15.0062 158.022 15.3534C157.098 15.7007 156.245 16.1972 155.461 16.8435V16.5207C155.461 16.0541 155.303 15.6587 154.981 15.3297C154.66 15.0008 154.28 14.8332 153.83 14.8332C153.381 14.8332 152.982 15.0008 152.662 15.3297C152.34 15.6587 152.182 16.0602 152.182 16.5207V31.3232C152.182 31.7898 152.34 32.1852 152.662 32.5141C152.982 32.8431 153.368 33.0106 153.83 33.0106C154.293 33.0106 154.666 32.8431 154.981 32.5141C155.303 32.1852 155.461 31.7837 155.461 31.3232V23.9189C155.461 23.1287 155.607 22.3867 155.894 21.6922C156.18 20.9977 156.572 20.3995 157.069 19.8847C157.566 19.37 158.151 18.963 158.816 18.6693C159.489 18.3702 160.203 18.2203 160.969 18.2203C161.735 18.2203 162.458 18.358 163.12 18.6273C163.382 18.7473 163.611 18.807 163.81 18.807C164.038 18.807 164.254 18.765 164.452 18.6754C164.651 18.5859 164.827 18.4659 164.973 18.3106C165.119 18.1552 165.236 17.9755 165.323 17.7659C165.411 17.5625 165.458 17.3407 165.458 17.1013C165.458 16.6346 165.312 16.2575 165.02 15.9639H165.026H165.025Z" fill="white"/>
<path d="M96.3838 20.4295C95.9571 19.3579 95.3197 18.3765 94.4608 17.4907C92.725 15.7192 90.6497 14.8273 88.241 14.8273C85.8322 14.8273 83.7401 15.7131 82.0211 17.4907C80.3021 19.2623 79.4493 21.4055 79.4493 23.919C79.4493 26.4326 80.3088 28.5697 82.0211 30.3473C83.7401 32.1189 85.8094 33.0108 88.241 33.0108C90.6726 33.0108 92.719 32.125 94.4608 30.3473C96.1798 28.5934 97.0333 26.4509 97.0333 23.919C97.0212 22.6623 96.8052 21.5011 96.3845 20.4295H96.3838ZM93.3209 26.1036V26.1158C93.0344 26.8042 92.6425 27.4085 92.146 27.9233C91.6495 28.4442 91.0644 28.8511 90.3981 29.1564C89.7319 29.4616 89.0126 29.6114 88.247 29.6114C87.4814 29.6114 86.7508 29.4616 86.0785 29.1564C85.4061 28.8511 84.8271 28.4442 84.3366 27.9294C83.8455 27.4146 83.4543 26.8103 83.1678 26.1219C82.8813 25.4274 82.735 24.6915 82.735 23.9129C82.735 23.1343 82.8813 22.3984 83.1678 21.7039C83.4543 21.0094 83.8461 20.4112 84.3366 19.8964C84.8278 19.3816 85.4122 18.9747 86.0785 18.6695C86.7508 18.3643 87.47 18.2144 88.247 18.2144C89.024 18.2144 89.7258 18.3643 90.3981 18.6695C91.0704 18.9747 91.6495 19.3816 92.146 19.9025C92.6425 20.4234 93.0344 21.0277 93.3209 21.71C93.6074 22.3984 93.7536 23.1289 93.7536 23.9068C93.7536 24.6848 93.6074 25.4213 93.3209 26.1036Z" fill="white"/>
<path d="M131.551 16.5148C131.551 16.2876 131.504 16.0719 131.417 15.8684C131.329 15.665 131.212 15.4798 131.066 15.3238C130.92 15.1685 130.744 15.0423 130.546 14.9589C130.347 14.8755 130.131 14.8273 129.903 14.8273C129.576 14.8273 129.283 14.9114 129.026 15.0851L119.638 21.4001V8.73408C119.638 8.25525 119.48 7.85441 119.159 7.52479C118.838 7.19584 118.458 7.02832 118.008 7.02832C117.557 7.02832 117.16 7.19584 116.838 7.52479C116.517 7.85373 116.359 8.25525 116.359 8.73408V31.2996C116.359 31.7662 116.517 32.1678 116.838 32.5028C117.159 32.8378 117.545 33.0054 118.008 33.0054C118.47 33.0054 118.844 32.8378 119.159 32.5028C119.48 32.1678 119.638 31.7662 119.638 31.2996V25.4397L121.556 24.1409L128.81 32.5625C129.103 32.8555 129.471 32.9993 129.909 32.9993C130.137 32.9993 130.353 32.9572 130.552 32.8677C130.751 32.7836 130.926 32.6581 131.072 32.5028C131.218 32.3475 131.335 32.1678 131.423 31.9582C131.511 31.7547 131.557 31.5329 131.557 31.3118C131.557 30.8689 131.405 30.4735 131.101 30.1269L124.349 22.2682L130.925 17.8509C131.346 17.5579 131.55 17.1089 131.55 16.5039V16.5161L131.551 16.5148Z" fill="white"/>
<path d="M103.756 19.8848C104.258 19.37 104.843 18.9631 105.515 18.6694C106.188 18.3703 106.901 18.2204 107.667 18.2204C108.356 18.2204 108.994 18.3404 109.584 18.5792C110.169 18.8186 110.73 19.172 111.262 19.6325C111.577 19.8895 111.934 20.0211 112.331 20.0211C112.805 20.0211 113.191 19.8597 113.501 19.5362C113.811 19.2126 113.962 18.8057 113.962 18.3208C113.962 17.8358 113.775 17.3868 113.395 17.0403C111.782 15.5678 109.871 14.8313 107.667 14.8313C105.24 14.8313 103.166 15.717 101.447 17.4947C99.7277 19.2662 98.8749 21.4094 98.8749 23.923C98.8749 26.4365 99.7344 28.5736 101.447 30.3513C103.166 32.1228 105.235 33.0147 107.667 33.0147C109.865 33.0147 111.776 32.2788 113.395 30.8057C113.74 30.4469 113.916 30.0339 113.916 29.555C113.916 29.0762 113.764 28.6632 113.454 28.3458C113.144 28.0283 112.753 27.8669 112.285 27.8669C111.888 27.8791 111.543 27.9985 111.251 28.2257C110.725 28.6923 110.175 29.0396 109.585 29.2729C109 29.5062 108.363 29.6202 107.667 29.6202C106.902 29.6202 106.188 29.4703 105.516 29.1712C104.844 28.8721 104.259 28.4651 103.756 27.9564C103.254 27.4478 102.856 26.8374 102.569 26.149C102.283 25.4544 102.136 24.7125 102.136 23.9223C102.136 23.1322 102.283 22.3902 102.569 21.6957C102.856 21.0012 103.253 20.4029 103.756 19.8882V19.8821L103.756 19.8848Z" fill="white"/>
</svg>
