<svg width="173" height="35" viewBox="0 0 173 35" fill="none" xmlns="http://www.w3.org/2000/svg">
<g clip-path="url(#clip0_2001_4121)">
<path fill-rule="evenodd" clip-rule="evenodd" d="M72.8112 21.2138C73.1755 20.2864 73.3584 19.2103 73.3584 17.987C73.3584 16.7632 73.1726 15.6873 72.8004 14.7595C72.4287 13.8313 71.9187 13.051 71.2716 12.4186C70.6242 11.7862 69.8666 11.3121 68.999 10.9958C68.131 10.6792 67.2082 10.5208 66.2306 10.5208C65.28 10.5208 64.3741 10.6792 63.5136 10.9958C62.6524 11.3121 61.8946 11.7862 61.2409 12.4186C60.5865 13.051 60.0662 13.8313 59.6808 14.7595C59.2951 15.6873 59.1021 16.7632 59.1021 17.987C59.1021 19.2103 59.2884 20.2864 59.6603 21.2138C60.0323 22.1421 60.5415 22.919 61.1892 23.5441C61.8362 24.1702 62.5942 24.6407 63.462 24.9568C64.3298 25.2734 65.2523 25.4315 66.2306 25.4315C67.2356 25.4315 68.176 25.2734 69.0505 24.9568C69.925 24.6407 70.6794 24.1702 71.3129 23.5441C71.9462 22.919 72.4457 22.1421 72.8112 21.2138ZM62.6869 19.8839C62.5147 19.3202 62.4288 18.6877 62.4288 17.987C62.4288 17.2995 62.5147 16.6705 62.6869 16.0996C62.8591 15.5292 63.1071 15.0413 63.431 14.6359C63.7541 14.2301 64.1504 13.9138 64.6191 13.6868C65.087 13.4602 65.6241 13.3468 66.2306 13.3468C66.8225 13.3468 67.3564 13.4567 67.8319 13.6768C68.3066 13.8962 68.7065 14.2093 69.0298 14.6148C69.3533 15.0209 69.6017 15.5084 69.7739 16.0788C69.9461 16.6495 70.0322 17.2854 70.0322 17.987C70.0322 18.6877 69.9461 19.3202 69.7739 19.8839C69.6017 20.4479 69.3533 20.9324 69.0298 21.3378C68.7065 21.7438 68.3066 22.0561 67.8319 22.2759C67.3564 22.4965 66.8225 22.6067 66.2306 22.6067C65.6241 22.6067 65.087 22.4965 64.6191 22.2759C64.1504 22.0561 63.7541 21.7438 63.431 21.3378C63.1071 20.9324 62.8591 20.4479 62.6869 19.8839Z" fill="white"/>
<path d="M81.463 22.6888C81.9176 22.6888 82.2927 22.6513 82.5889 22.5752C82.8851 22.4999 83.1228 22.397 83.3017 22.2655C83.4804 22.1354 83.6047 21.9809 83.6738 21.8021C83.7428 21.6236 83.7771 21.424 83.7771 21.204C83.7771 20.7368 83.5565 20.3479 83.1158 20.0389C82.675 19.7293 81.9175 19.3962 80.8433 19.0381C80.3748 18.8737 79.9064 18.6842 79.4381 18.4714C78.9698 18.2586 78.5497 17.9904 78.1779 17.6671C77.8064 17.3442 77.5031 16.9523 77.269 16.4912C77.0347 16.031 76.9177 15.471 76.9177 14.8109C76.9177 14.1508 77.0417 13.5562 77.2895 13.027C77.5377 12.4976 77.8888 12.0477 78.3435 11.676C78.7979 11.3046 79.3486 11.02 79.996 10.8202C80.6435 10.6212 81.3732 10.5208 82.1862 10.5208C83.1502 10.5208 83.9838 10.6246 84.6864 10.8305C85.3884 11.0367 85.967 11.2639 86.4215 11.5114L85.4921 14.0479C85.0923 13.8417 84.6479 13.6594 84.1594 13.5011C83.6703 13.3433 83.0815 13.2638 82.393 13.2638C81.6213 13.2638 81.0669 13.3711 80.7295 13.5839C80.3921 13.7969 80.2231 14.1237 80.2231 14.5632C80.2231 14.8248 80.2855 15.045 80.4094 15.2233C80.5331 15.402 80.709 15.5635 80.936 15.708C81.1634 15.8521 81.4251 15.9831 81.7216 16.0996C82.0171 16.2167 82.3445 16.3366 82.703 16.4603C83.4464 16.7358 84.0938 17.0071 84.6451 17.2752C85.1957 17.5434 85.6539 17.8563 86.0191 18.2136C86.3837 18.5709 86.6557 18.9905 86.8352 19.4718C87.0137 19.9533 87.1035 20.5373 87.1035 21.2242C87.1035 22.5579 86.635 23.5926 85.6984 24.3278C84.7617 25.0638 83.3499 25.4317 81.463 25.4317C80.8295 25.4317 80.2577 25.3937 79.7481 25.3181C79.2385 25.242 78.7875 25.1494 78.3949 25.0396C78.0026 24.9297 77.6648 24.8129 77.3822 24.6893C77.1 24.5653 76.8625 24.4487 76.6695 24.3382L77.579 21.7814C78.0054 22.0155 78.5324 22.2248 79.1597 22.41C79.786 22.5959 80.5541 22.6888 81.463 22.6888Z" fill="white"/>
<path d="M101.303 10.8515V13.5945H96.985V25.1428H93.762V13.5945H89.4435V10.8515H101.303Z" fill="white"/>
<path d="M104.883 25.1431H108.106V10.8515H104.883V25.1431Z" fill="white"/>
<path d="M122.534 25.1428C121.611 23.5069 120.613 21.8917 119.539 20.2964C118.463 18.7015 117.32 17.1962 116.109 15.78V25.1428H112.927V10.8515H115.551C116.005 11.3048 116.508 11.8617 117.059 12.5218C117.61 13.1819 118.17 13.8866 118.743 14.6358C119.314 15.385 119.882 16.1618 120.447 16.9658C121.012 17.77 121.542 18.5432 122.038 19.2857V10.8515H125.241V25.1428H122.534Z" fill="white"/>
<path d="M137.043 13.3263C135.543 13.3263 134.458 13.7421 133.789 14.5738C133.121 15.4058 132.788 16.543 132.788 17.9871C132.788 18.6876 132.87 19.324 133.035 19.8944C133.201 20.4645 133.449 20.9559 133.779 21.3686C134.11 21.7812 134.523 22.101 135.019 22.3279C135.515 22.5546 136.093 22.668 136.754 22.668C137.112 22.668 137.419 22.661 137.674 22.6475C137.928 22.634 138.152 22.6065 138.345 22.565V17.5952H141.569V24.6686C141.183 24.8201 140.563 24.9813 139.709 25.1528C138.855 25.3244 137.801 25.411 136.548 25.411C135.474 25.411 134.499 25.2457 133.625 24.9161C132.749 24.5857 132.002 24.1049 131.383 23.4722C130.764 22.8401 130.285 22.063 129.947 21.1419C129.609 20.2214 129.441 19.1695 129.441 17.9871C129.441 16.7907 129.627 15.7322 129.999 14.8108C130.371 13.89 130.879 13.1092 131.527 12.4701C132.175 11.8309 132.935 11.3463 133.811 11.0165C134.685 10.6863 135.618 10.5208 136.609 10.5208C137.285 10.5208 137.894 10.566 138.438 10.6551C138.982 10.7448 139.45 10.8478 139.843 10.9648C140.235 11.0813 140.56 11.2016 140.814 11.3256C141.07 11.4493 141.251 11.5459 141.361 11.6145L140.432 14.192C139.992 13.9584 139.484 13.756 138.914 13.5838C138.342 13.4119 137.719 13.3263 137.043 13.3263Z" fill="white"/>
<path d="M146.078 25.1428V10.8515H155.747V13.553H149.302V16.3573H155.025V18.9973H149.302V22.4413H156.223V25.1428H146.078Z" fill="white"/>
<path fill-rule="evenodd" clip-rule="evenodd" d="M169.245 11.8306C168.102 11.0674 166.456 10.6861 164.307 10.6861C163.715 10.6861 163.043 10.7135 162.293 10.7689C161.542 10.8234 160.815 10.9203 160.114 11.057V25.1426H163.336V19.9246H164.927C165.204 20.2551 165.48 20.6227 165.757 21.0287C166.033 21.4342 166.315 21.8633 166.597 22.3172C166.881 22.771 167.156 23.2388 167.427 23.7198C167.695 24.2011 167.962 24.6752 168.225 25.1426H171.827C171.58 24.6204 171.312 24.0877 171.022 23.5442C170.733 23.0015 170.434 22.4793 170.123 21.9775C169.813 21.4757 169.499 20.9944 169.183 20.5336C168.866 20.0731 168.564 19.6642 168.274 19.3064C169.143 18.9494 169.806 18.4574 170.268 17.8322C170.73 17.2067 170.96 16.3915 170.96 15.3883C170.96 13.7794 170.388 12.5937 169.245 11.8306ZM163.863 13.4496C164.049 13.4361 164.259 13.4291 164.493 13.4291C165.526 13.4291 166.308 13.577 166.838 13.8721C167.369 14.1685 167.634 14.6662 167.634 15.3675C167.634 16.0965 167.373 16.6124 166.849 16.9144C166.325 17.2171 165.458 17.3676 164.246 17.3676H163.336V13.4908C163.502 13.4776 163.677 13.4637 163.863 13.4496Z" fill="white"/>
<path d="M51.5538 10.9671H54.7963V25.2081H51.5538V19.1665H46.1083V25.2081H42.8657V10.9671H46.1083V16.4125H51.5538V10.9671Z" fill="white"/>
<path fill-rule="evenodd" clip-rule="evenodd" d="M20.7374 1V11.1843L29.0373 15.9963V5.19396L20.7374 1ZM-0.231157 1.0005V16.982H26.7624L18.5495 12.5071L7.85071 12.5019V5.30147L-0.231157 1.0005ZM20.7374 30.7177V23.5793L9.95616 23.5718C9.96622 23.6194 1.60687 19.0255 1.60687 19.0255L29.0372 19.1539V35.1351L20.7374 30.7177ZM-0.231158 20.2741L-0.231445 30.7177L7.85071 34.9114V24.9723L-0.231158 20.2741Z" fill="#6741C9"/>
</g>
<defs>
<clipPath id="clip0_2001_4121">
<rect width="173" height="35" fill="white"/>
</clipPath>
</defs>
</svg>
