<svg width="198" height="38" viewBox="0 0 198 38" fill="none" xmlns="http://www.w3.org/2000/svg">
<path fill-rule="evenodd" clip-rule="evenodd" d="M85.0397 28.9609L85.5992 28.217C85.9721 28.031 85.9721 27.659 85.9721 27.287C85.9721 26.915 85.9721 26.543 85.4127 26.171C85.2262 25.799 84.8532 25.613 84.2938 25.427C82.4658 25.0273 80.6605 24.5306 78.8856 23.939L76.8343 22.637C76.0883 22.2651 75.7154 21.7071 75.3424 21.1491L74.7829 18.9171C74.7829 17.9871 74.9694 17.2431 75.3424 16.6851C75.7154 15.9412 76.2748 15.1972 77.0208 14.8252C77.5802 14.2672 78.5127 13.7092 79.2586 13.5232C81.0119 12.928 82.9134 12.928 84.6667 13.5232C85.4127 13.5232 86.1586 13.8952 86.9046 14.4532L88.3965 15.9412C88.9559 16.4992 89.1424 17.2431 89.3289 17.8011L85.4127 18.9171C85.4127 18.3591 84.8532 17.8011 84.2938 17.4291C83.6482 16.9462 82.8629 16.6851 82.0559 16.6851C81.2897 16.5969 80.5141 16.7258 79.8181 17.0571L79.0721 17.8011L78.6992 18.7311L79.0721 19.6611L80.0046 20.4051L81.1235 20.7771L82.2424 21.1491L85.9721 22.2651L88.3965 23.567C88.9559 24.125 89.3289 24.683 89.5154 25.427C89.8884 25.799 89.8884 26.543 89.8884 27.287C89.8884 28.217 89.8884 29.1469 89.3289 29.7049C88.9559 30.4489 88.3965 31.1929 87.6505 31.7509C86.9046 32.3089 85.9721 32.8669 85.0397 33.0529C84.1073 33.4249 82.9883 33.6109 81.8694 33.6109C80.0046 33.6109 78.5127 33.2389 77.0208 32.3089C75.7154 31.3789 74.7829 30.4489 74.2235 28.9609L77.9532 27.473C78.3262 28.403 78.8856 28.9609 79.6316 29.3329C80.1911 29.7049 81.1235 29.8909 82.0559 29.8909C83.1748 29.8909 83.9208 29.5189 84.8532 28.9609H85.0397ZM103.688 33.0529L100.145 33.7969C99.0262 33.7969 98.0938 33.7969 97.1614 33.2389C96.2289 32.8669 95.483 32.1229 94.9235 31.1929C94.3641 30.2629 94.1776 28.7749 94.1776 26.915V17.6151H90.6343V13.3372H91.5667C92.6857 13.3372 93.8046 13.1512 94.3641 12.0352C94.737 11.6632 94.737 11.1052 94.737 9.80326V8.31529H98.4668V13.3372H102.569V17.8011H98.2803V29.1469L99.2127 30.0769L100.705 30.2629H102.942L103.688 33.0529ZM116.742 17.0571L116.183 16.6851H115.251L114.691 16.4992C113.129 16.4671 111.607 16.9951 110.402 17.9871L109.283 19.4751C108.91 20.0331 108.91 20.7771 108.91 21.3351V33.7969H104.621V13.3372H107.978L108.724 15.7552C109.283 14.8252 110.029 14.2672 110.961 13.8952C112.047 13.2962 113.264 12.9766 114.505 12.9652L117.675 13.3372L116.556 17.0571H116.742ZM127.372 33.6109C125.316 33.6053 123.305 33.0049 121.584 31.8825C119.863 30.76 118.505 29.1637 117.675 27.287C117.115 25.985 116.742 24.683 116.742 23.195C116.745 21.191 117.326 19.2301 118.418 17.5476C119.509 15.865 121.065 14.5323 122.897 13.7092C125.35 12.7263 128.089 12.7263 130.543 13.7092C131.661 14.0812 132.78 14.8252 133.526 15.7552C134.459 16.6851 135.205 17.9871 135.578 19.4751C136.137 21.1491 136.324 22.823 136.324 25.055H121.218C121.218 25.799 121.591 26.357 122.151 26.915C122.956 28.1661 124.128 29.1401 125.507 29.7049L127.932 30.0769C129.869 30.0794 131.736 29.3482 133.153 28.031L135.764 30.4489C134.679 31.4291 133.412 32.1874 132.034 32.6809C130.729 33.2389 129.051 33.6109 127.372 33.6109ZM126.626 16.4992C126.067 16.4992 125.321 16.4992 124.761 16.8711C123.568 17.4094 122.585 18.3244 121.964 19.4751C121.591 20.0331 121.218 20.7771 121.218 21.3351H131.848C131.848 20.7771 131.848 20.2191 131.475 19.4751C131.051 18.5176 130.338 17.7161 129.435 17.1825C128.533 16.649 127.485 16.41 126.44 16.4992H126.626ZM158.329 13.3372V33.6109H154.972L154.226 30.8209C153.667 31.7509 152.734 32.4949 151.616 32.8669C150.497 33.4249 149.378 33.6109 148.259 33.6109C146.907 33.6374 145.564 33.387 144.313 32.8751C143.062 32.3632 141.929 31.6008 140.986 30.6349C139.027 28.6515 137.929 25.9791 137.929 23.195C137.929 20.411 139.027 17.7386 140.986 15.7552C141.942 14.8065 143.077 14.0553 144.325 13.5446C145.573 13.034 146.91 12.7739 148.259 12.7792C149.378 12.7792 150.497 13.1512 151.429 13.5232C152.548 13.8952 153.48 14.6392 154.226 15.3832L154.972 13.3372H158.516H158.329ZM148.259 30.0769L150.497 29.5189C151.243 29.1469 151.989 28.5889 152.361 28.031C153.574 26.7125 154.241 24.9843 154.226 23.195C154.206 21.4123 153.544 19.6962 152.361 18.3591C151.989 17.8011 151.243 17.2431 150.497 16.8711C149.773 16.5109 148.975 16.3234 148.166 16.3234C147.356 16.3234 146.558 16.5109 145.834 16.8711L143.97 18.3591C142.757 19.6775 142.09 21.4057 142.105 23.195C142.125 24.9778 142.787 26.6939 143.97 28.031L145.834 29.5189C146.58 29.8909 147.326 30.0769 148.259 30.0769ZM165.602 33.6109H161.499V13.1512H164.67L165.602 15.0112C165.975 14.4532 166.721 13.8952 167.467 13.5232C168.026 13.1512 168.959 12.7792 169.891 12.7792C171.533 12.8034 173.114 13.3951 174.367 14.4532L175.672 15.9412C176.045 15.1972 176.791 14.4532 177.724 13.7092C178.662 13.0879 179.767 12.7638 180.894 12.7792L183.318 13.1512C184.228 13.4441 185.065 13.9275 185.773 14.569C186.48 15.2106 187.042 15.9954 187.421 16.8711C187.794 17.9871 187.98 19.4751 187.98 21.1491V33.6109H184.251V21.1491C184.251 19.2891 183.691 18.1731 182.945 17.4291C182.386 16.8711 181.267 16.4992 180.148 16.4992C179.216 16.4992 178.283 16.8711 177.724 17.6151C177.164 18.3591 176.791 19.4751 176.791 21.1491V33.6109H172.875V21.1491C172.875 19.2891 172.502 18.1731 171.756 17.4291C171.01 16.8711 170.078 16.4992 168.959 16.4992C168.026 16.4992 167.28 16.8711 166.721 17.4291C165.975 18.1731 165.602 19.1031 165.602 20.4051V33.4249V33.6109Z" fill="white"/>
<path fill-rule="evenodd" clip-rule="evenodd" d="M50.28 13.3977L69.7311 12.0755C71.0403 12.0755 71.9754 13.3977 71.2273 14.3421L57.5741 33.2301C57.2001 33.4189 56.826 33.7967 56.2649 33.7967H25.5921C25.3595 33.7683 25.1368 33.6851 24.9419 33.5539C24.747 33.4226 24.5853 33.247 24.4699 33.0412L10.8167 14.3421C10.0686 13.3977 10.8167 11.8867 12.1259 12.0755L31.577 13.3977L39.8063 4.33148C40.3674 3.57596 41.6766 3.57596 42.0507 4.33148L50.28 13.2088V13.3977ZM54.3946 30.7746L41.6766 26.0526V30.7746H54.3946ZM40.1804 30.7746V26.0526L27.4624 30.7746H40.3674H40.1804ZM38.6841 25.1082L25.7791 29.8302L16.4276 16.6087L38.8712 24.9194L38.6841 25.1082ZM43.1728 25.1082L56.2649 29.8302L65.6164 16.6087L43.1728 24.9194V25.1082ZM40.1804 23.975V8.29795L29.7067 20.0085L40.1804 23.7861V23.975ZM41.6766 23.975V8.29795L52.3373 20.0085L41.6766 23.7861V23.975ZM26.5272 18.8752L28.9586 16.2309L16.9887 15.4754L26.5272 18.8752ZM55.3298 18.8752L52.8984 16.2309L64.6813 15.4754L55.3298 18.8752Z" fill="#006CFF"/>
</svg>
